<svg xmlns="http://www.w3.org/2000/svg" width="256" height="256" viewBox="0 0 256 256" fill="none">
  <!-- Outer dark green border -->
  <circle cx="128" cy="128" r="120" stroke="#1a5f3f" stroke-width="16" fill="none" />
  <!-- Inner bright green border -->
  <circle cx="128" cy="128" r="108" stroke="#22c55e" stroke-width="4" fill="none" />
  
  <!-- White background circle -->
  <circle cx="128" cy="128" r="100" fill="white" />
  
  <!-- Palm tree trunk (dark green) -->
  <path d="M118 180 Q128 160 138 180" stroke="#1a5f3f" stroke-width="8" fill="none" />
  
  <!-- Palm fronds (bright green) - simplified -->
  <path d="M128 160 Q100 120 80 140" stroke="#22c55e" stroke-width="6" fill="none" />
  <path d="M128 160 Q110 100 90 120" stroke="#22c55e" stroke-width="6" fill="none" />
  <path d="M128 160 Q130 100 150 120" stroke="#22c55e" stroke-width="6" fill="none" />
  <path d="M128 160 Q150 120 170 140" stroke="#22c55e" stroke-width="6" fill="none" />
  
  <!-- Palm frond connection point -->
  <circle cx="128" cy="160" r="3" fill="#1a5f3f" />
  
  <!-- Waves at bottom (bright green) - simplified -->
  <path d="M80 200 Q100 190 120 200 Q140 210 160 200 Q180 190 200 200" stroke="#22c55e" stroke-width="4" fill="none" />
  <path d="M90 210 Q110 200 130 210 Q150 220 170 210 Q190 200 210 210" stroke="#22c55e" stroke-width="3" fill="none" />
  
  <!-- Company name text (dark green) -->
  <text x="128" y="240" text-anchor="middle" font-family="Arial, sans-serif" font-size="12" font-weight="bold" fill="#1a5f3f">
    <tspan x="128" dy="0">TIMA GREEN TOURS</tspan>
  </text>
</svg>